<svg width="128" height="44" viewBox="0 0 128 44" fill="none" xmlns="http://www.w3.org/2000/svg">
<path d="M22 15.9C23.16 15.9 24.1 16.84 24.1 18C24.1 19.16 23.16 20.1 22 20.1C20.84 20.1 19.9 19.16 19.9 18C19.9 16.84 20.84 15.9 22 15.9ZM22 24.9C24.97 24.9 28.1 26.36 28.1 27V28.1H15.9V27C15.9 26.36 19.03 24.9 22 24.9ZM22 14C19.79 14 18 15.79 18 18C18 20.21 19.79 22 22 22C24.21 22 26 20.21 26 18C26 15.79 24.21 14 22 14ZM22 23C19.33 23 14 24.34 14 27V30H30V27C30 24.34 24.67 23 22 23Z" fill="white"/>
<path d="M52.313 25.365H47.145L46.193 28H44.561L48.845 16.219H50.63L54.897 28H53.265L52.313 25.365ZM51.871 24.107L49.729 18.123L47.587 24.107H51.871ZM58.3111 20.418C58.6284 19.8627 59.0931 19.4093 59.7051 19.058C60.3171 18.7067 61.0141 18.531 61.7961 18.531C62.6347 18.531 63.3884 18.7293 64.0571 19.126C64.7257 19.5227 65.2527 20.0837 65.6381 20.809C66.0234 21.523 66.2161 22.356 66.2161 23.308C66.2161 24.2487 66.0234 25.0873 65.6381 25.824C65.2527 26.5607 64.7201 27.133 64.0401 27.541C63.3714 27.949 62.6234 28.153 61.7961 28.153C60.9914 28.153 60.2831 27.9773 59.6711 27.626C59.0704 27.2747 58.6171 26.827 58.3111 26.283V28H56.7641V15.42H58.3111V20.418ZM64.6351 23.308C64.6351 22.6053 64.4934 21.9933 64.2101 21.472C63.9267 20.9507 63.5414 20.554 63.0541 20.282C62.5781 20.01 62.0511 19.874 61.4731 19.874C60.9064 19.874 60.3794 20.0157 59.8921 20.299C59.4161 20.571 59.0307 20.9733 58.7361 21.506C58.4527 22.0273 58.3111 22.6337 58.3111 23.325C58.3111 24.0277 58.4527 24.6453 58.7361 25.178C59.0307 25.6993 59.4161 26.1017 59.8921 26.385C60.3794 26.657 60.9064 26.793 61.4731 26.793C62.0511 26.793 62.5781 26.657 63.0541 26.385C63.5414 26.1017 63.9267 25.6993 64.2101 25.178C64.4934 24.6453 64.6351 24.022 64.6351 23.308ZM72.3154 28.153C71.4427 28.153 70.6494 27.9547 69.9354 27.558C69.2327 27.1613 68.6774 26.6003 68.2694 25.875C67.8727 25.1383 67.6744 24.2883 67.6744 23.325C67.6744 22.373 67.8784 21.5343 68.2864 20.809C68.7057 20.0723 69.2724 19.5113 69.9864 19.126C70.7004 18.7293 71.4994 18.531 72.3834 18.531C73.2674 18.531 74.0664 18.7293 74.7804 19.126C75.4944 19.5113 76.0554 20.0667 76.4634 20.792C76.8827 21.5173 77.0924 22.3617 77.0924 23.325C77.0924 24.2883 76.877 25.1383 76.4464 25.875C76.027 26.6003 75.4547 27.1613 74.7294 27.558C74.004 27.9547 73.1994 28.153 72.3154 28.153ZM72.3154 26.793C72.8707 26.793 73.392 26.6627 73.8794 26.402C74.3667 26.1413 74.7577 25.7503 75.0524 25.229C75.3584 24.7077 75.5114 24.073 75.5114 23.325C75.5114 22.577 75.364 21.9423 75.0694 21.421C74.7747 20.8997 74.3894 20.5143 73.9134 20.265C73.4374 20.0043 72.9217 19.874 72.3664 19.874C71.7997 19.874 71.2784 20.0043 70.8024 20.265C70.3377 20.5143 69.9637 20.8997 69.6804 21.421C69.397 21.9423 69.2554 22.577 69.2554 23.325C69.2554 24.0843 69.3914 24.7247 69.6634 25.246C69.9467 25.7673 70.3207 26.1583 70.7854 26.419C71.25 26.6683 71.76 26.793 72.3154 26.793ZM87.3884 18.684V28H85.8414V26.623C85.5467 27.099 85.133 27.473 84.6004 27.745C84.079 28.0057 83.501 28.136 82.8664 28.136C82.141 28.136 81.4894 27.9887 80.9114 27.694C80.3334 27.388 79.8744 26.9347 79.5344 26.334C79.2057 25.7333 79.0414 25.0023 79.0414 24.141V18.684H80.5714V23.937C80.5714 24.855 80.8037 25.5633 81.2684 26.062C81.733 26.5493 82.3677 26.793 83.1724 26.793C83.9997 26.793 84.6514 26.538 85.1274 26.028C85.6034 25.518 85.8414 24.7757 85.8414 23.801V18.684H87.3884ZM91.8874 19.959V25.45C91.8874 25.9033 91.9837 26.2263 92.1764 26.419C92.3691 26.6003 92.7034 26.691 93.1794 26.691H94.3184V28H92.9244C92.0631 28 91.4171 27.8017 90.9864 27.405C90.5557 27.0083 90.3404 26.3567 90.3404 25.45V19.959H89.1334V18.684H90.3404V16.338H91.8874V18.684H94.3184V19.959H91.8874ZM111.928 18.514C112.653 18.514 113.299 18.667 113.866 18.973C114.433 19.2677 114.88 19.7153 115.209 20.316C115.538 20.9167 115.702 21.6477 115.702 22.509V28H114.172V22.73C114.172 21.8007 113.94 21.0923 113.475 20.605C113.022 20.1063 112.404 19.857 111.622 19.857C110.817 19.857 110.177 20.1177 109.701 20.639C109.225 21.149 108.987 21.8913 108.987 22.866V28H107.457V22.73C107.457 21.8007 107.225 21.0923 106.76 20.605C106.307 20.1063 105.689 19.857 104.907 19.857C104.102 19.857 103.462 20.1177 102.986 20.639C102.51 21.149 102.272 21.8913 102.272 22.866V28H100.725V18.684H102.272V20.027C102.578 19.5397 102.986 19.1657 103.496 18.905C104.017 18.6443 104.59 18.514 105.213 18.514C105.995 18.514 106.686 18.6897 107.287 19.041C107.888 19.3923 108.335 19.908 108.63 20.588C108.891 19.9307 109.321 19.4207 109.922 19.058C110.523 18.6953 111.191 18.514 111.928 18.514ZM126.74 22.985C126.74 23.2797 126.723 23.5913 126.689 23.92H119.243C119.299 24.838 119.611 25.5577 120.178 26.079C120.756 26.589 121.453 26.844 122.269 26.844C122.937 26.844 123.493 26.691 123.935 26.385C124.388 26.0677 124.705 25.6483 124.887 25.127H126.553C126.303 26.0223 125.805 26.7533 125.057 27.32C124.309 27.8753 123.379 28.153 122.269 28.153C121.385 28.153 120.591 27.9547 119.889 27.558C119.197 27.1613 118.653 26.6003 118.257 25.875C117.86 25.1383 117.662 24.2883 117.662 23.325C117.662 22.3617 117.854 21.5173 118.24 20.792C118.625 20.0667 119.163 19.5113 119.855 19.126C120.557 18.7293 121.362 18.531 122.269 18.531C123.153 18.531 123.935 18.7237 124.615 19.109C125.295 19.4943 125.816 20.027 126.179 20.707C126.553 21.3757 126.74 22.135 126.74 22.985ZM125.142 22.662C125.142 22.0727 125.011 21.5683 124.751 21.149C124.49 20.7183 124.133 20.3953 123.68 20.18C123.238 19.9533 122.745 19.84 122.201 19.84C121.419 19.84 120.75 20.0893 120.195 20.588C119.651 21.0867 119.339 21.778 119.26 22.662H125.142Z" fill="white"/>
</svg>
