<svg width="120" height="51" viewBox="0 0 120 51" fill="none" xmlns="http://www.w3.org/2000/svg">
<g filter="url(#filter0_d_52_466)">
<path d="M19.6796 13.3204L20.2929 12.7071C20.6834 12.3166 21.3166 12.3166 21.7071 12.7071L24.2929 15.2929C24.6834 15.6834 24.6834 16.3166 24.2929 16.7071L22.5005 18.4995C22.2016 18.7984 22.1275 19.255 22.3165 19.6331C23.4093 21.8186 25.1814 23.5907 27.3669 24.6835C27.745 24.8725 28.2016 24.7984 28.5005 24.4995L30.2929 22.7071C30.6834 22.3166 31.3166 22.3166 31.7071 22.7071L34.2929 25.2929C34.6834 25.6834 34.6834 26.3166 34.2929 26.7071L33.6796 27.3204C31.5683 29.4317 28.2257 29.6693 25.837 27.8777L24.6286 26.9714C22.885 25.6638 21.3362 24.115 20.0286 22.3714L19.1223 21.163C17.3307 18.7743 17.5683 15.4317 19.6796 13.3204Z" fill="white"/>
<path d="M47.731 21.567C47.731 20.411 47.9917 19.374 48.513 18.456C49.0343 17.5267 49.7427 16.8013 50.638 16.28C51.5447 15.7587 52.5477 15.498 53.647 15.498C54.939 15.498 56.0667 15.8097 57.03 16.433C57.9933 17.0563 58.696 17.9403 59.138 19.085H57.285C56.9563 18.371 56.4803 17.8213 55.857 17.436C55.245 17.0507 54.5083 16.858 53.647 16.858C52.8197 16.858 52.0773 17.0507 51.42 17.436C50.7627 17.8213 50.247 18.371 49.873 19.085C49.499 19.7877 49.312 20.615 49.312 21.567C49.312 22.5077 49.499 23.335 49.873 24.049C50.247 24.7517 50.7627 25.2957 51.42 25.681C52.0773 26.0663 52.8197 26.259 53.647 26.259C54.5083 26.259 55.245 26.072 55.857 25.698C56.4803 25.3127 56.9563 24.763 57.285 24.049H59.138C58.696 25.1823 57.9933 26.0607 57.03 26.684C56.0667 27.296 54.939 27.602 53.647 27.602C52.5477 27.602 51.5447 27.347 50.638 26.837C49.7427 26.3157 49.0343 25.596 48.513 24.678C47.9917 23.76 47.731 22.723 47.731 21.567ZM65.5038 27.653C64.6312 27.653 63.8378 27.4547 63.1238 27.058C62.4212 26.6613 61.8658 26.1003 61.4578 25.375C61.0612 24.6383 60.8628 23.7883 60.8628 22.825C60.8628 21.873 61.0668 21.0343 61.4748 20.309C61.8942 19.5723 62.4608 19.0113 63.1748 18.626C63.8888 18.2293 64.6878 18.031 65.5718 18.031C66.4558 18.031 67.2548 18.2293 67.9688 18.626C68.6828 19.0113 69.2438 19.5667 69.6518 20.292C70.0712 21.0173 70.2808 21.8617 70.2808 22.825C70.2808 23.7883 70.0655 24.6383 69.6348 25.375C69.2155 26.1003 68.6432 26.6613 67.9178 27.058C67.1925 27.4547 66.3878 27.653 65.5038 27.653ZM65.5038 26.293C66.0592 26.293 66.5805 26.1627 67.0678 25.902C67.5552 25.6413 67.9462 25.2503 68.2408 24.729C68.5468 24.2077 68.6998 23.573 68.6998 22.825C68.6998 22.077 68.5525 21.4423 68.2578 20.921C67.9632 20.3997 67.5778 20.0143 67.1018 19.765C66.6258 19.5043 66.1102 19.374 65.5548 19.374C64.9882 19.374 64.4668 19.5043 63.9908 19.765C63.5262 20.0143 63.1522 20.3997 62.8688 20.921C62.5855 21.4423 62.4438 22.077 62.4438 22.825C62.4438 23.5843 62.5798 24.2247 62.8518 24.746C63.1352 25.2673 63.5092 25.6583 63.9738 25.919C64.4385 26.1683 64.9485 26.293 65.5038 26.293ZM76.8539 18.014C77.9872 18.014 78.9052 18.3597 79.6079 19.051C80.3105 19.731 80.6619 20.717 80.6619 22.009V27.5H79.1319V22.23C79.1319 21.3007 78.8995 20.5923 78.4349 20.105C77.9702 19.6063 77.3355 19.357 76.5309 19.357C75.7149 19.357 75.0632 19.612 74.5759 20.122C74.0999 20.632 73.8619 21.3743 73.8619 22.349V27.5H72.3149V18.184H73.8619V19.51C74.1679 19.034 74.5815 18.6657 75.1029 18.405C75.6355 18.1443 76.2192 18.014 76.8539 18.014ZM85.0759 19.459V24.95C85.0759 25.4033 85.1722 25.7263 85.3649 25.919C85.5575 26.1003 85.8919 26.191 86.3679 26.191H87.5069V27.5H86.1129C85.2515 27.5 84.6055 27.3017 84.1749 26.905C83.7442 26.5083 83.5289 25.8567 83.5289 24.95V19.459H82.3219V18.184H83.5289V15.838H85.0759V18.184H87.5069V19.459H85.0759ZM88.8033 22.808C88.8033 21.856 88.9959 21.023 89.3813 20.309C89.7666 19.5837 90.2936 19.0227 90.9623 18.626C91.6423 18.2293 92.3959 18.031 93.2233 18.031C94.0393 18.031 94.7476 18.2067 95.3483 18.558C95.9489 18.9093 96.3966 19.3513 96.6913 19.884V18.184H98.2553V27.5H96.6913V25.766C96.3853 26.31 95.9263 26.7633 95.3143 27.126C94.7136 27.4773 94.0109 27.653 93.2063 27.653C92.3789 27.653 91.6309 27.449 90.9623 27.041C90.2936 26.633 89.7666 26.0607 89.3813 25.324C88.9959 24.5873 88.8033 23.7487 88.8033 22.808ZM96.6913 22.825C96.6913 22.1223 96.5496 21.5103 96.2663 20.989C95.9829 20.4677 95.5976 20.071 95.1103 19.799C94.6343 19.5157 94.1073 19.374 93.5293 19.374C92.9513 19.374 92.4243 19.51 91.9483 19.782C91.4723 20.054 91.0926 20.4507 90.8093 20.972C90.5259 21.4933 90.3843 22.1053 90.3843 22.808C90.3843 23.522 90.5259 24.1453 90.8093 24.678C91.0926 25.1993 91.4723 25.6017 91.9483 25.885C92.4243 26.157 92.9513 26.293 93.5293 26.293C94.1073 26.293 94.6343 26.157 95.1103 25.885C95.5976 25.6017 95.9829 25.1993 96.2663 24.678C96.5496 24.1453 96.6913 23.5277 96.6913 22.825ZM100.292 22.825C100.292 21.8617 100.484 21.023 100.87 20.309C101.255 19.5837 101.788 19.0227 102.468 18.626C103.159 18.2293 103.947 18.031 104.831 18.031C105.975 18.031 106.916 18.3087 107.653 18.864C108.401 19.4193 108.894 20.19 109.132 21.176H107.466C107.307 20.6093 106.995 20.1617 106.531 19.833C106.077 19.5043 105.511 19.34 104.831 19.34C103.947 19.34 103.233 19.646 102.689 20.258C102.145 20.8587 101.873 21.7143 101.873 22.825C101.873 23.947 102.145 24.814 102.689 25.426C103.233 26.038 103.947 26.344 104.831 26.344C105.511 26.344 106.077 26.1853 106.531 25.868C106.984 25.5507 107.296 25.0973 107.466 24.508H109.132C108.882 25.46 108.384 26.225 107.636 26.803C106.888 27.3697 105.953 27.653 104.831 27.653C103.947 27.653 103.159 27.4547 102.468 27.058C101.788 26.6613 101.255 26.1003 100.87 25.375C100.484 24.6497 100.292 23.7997 100.292 22.825ZM113.083 19.459V24.95C113.083 25.4033 113.179 25.7263 113.372 25.919C113.564 26.1003 113.899 26.191 114.375 26.191H115.514V27.5H114.12C113.258 27.5 112.612 27.3017 112.182 26.905C111.751 26.5083 111.536 25.8567 111.536 24.95V19.459H110.329V18.184H111.536V15.838H113.083V18.184H115.514V19.459H113.083Z" fill="white"/>
</g>
<defs>
<filter id="filter0_d_52_466" x="0" y="0" width="121" height="51" filterUnits="userSpaceOnUse" color-interpolation-filters="sRGB">
<feFlood flood-opacity="0" result="BackgroundImageFix"/>
<feColorMatrix in="SourceAlpha" type="matrix" values="0 0 0 0 0 0 0 0 0 0 0 0 0 0 0 0 0 0 127 0" result="hardAlpha"/>
<feOffset dy="4"/>
<feGaussianBlur stdDeviation="2"/>
<feComposite in2="hardAlpha" operator="out"/>
<feColorMatrix type="matrix" values="0 0 0 0 0 0 0 0 0 0 0 0 0 0 0 0 0 0 0.25 0"/>
<feBlend mode="normal" in2="BackgroundImageFix" result="effect1_dropShadow_52_466"/>
<feBlend mode="normal" in="SourceGraphic" in2="effect1_dropShadow_52_466" result="shape"/>
</filter>
</defs>
</svg>
