<svg width="215" height="409" viewBox="0 0 215 409" fill="none" xmlns="http://www.w3.org/2000/svg">
<g filter="url(#filter0_dd_10_118)">
<circle cx="88.2393" cy="352.784" r="21.2017" fill="url(#paint0_linear_10_118)" shape-rendering="crispEdges"/>
</g>
<g filter="url(#filter1_dd_10_118)">
<circle cx="152.896" cy="285.115" r="15.6852" fill="url(#paint1_linear_10_118)" shape-rendering="crispEdges"/>
</g>
<circle cx="55.1793" cy="159.179" r="159.179" fill="url(#paint2_radial_10_118)" fill-opacity="0.6"/>
<g filter="url(#filter2_d_10_118)">
<ellipse cx="87.9217" cy="194.887" rx="95.3724" ry="59.7482" fill="url(#paint3_linear_10_118)" fill-opacity="0.5" shape-rendering="crispEdges"/>
<path d="M182.776 194.887C182.776 211.144 172.257 225.939 155.085 236.697C137.921 247.45 114.176 254.117 87.9217 254.117C61.667 254.117 37.9225 247.45 20.758 236.697C3.58644 225.939 -6.93311 211.144 -6.93311 194.887C-6.93311 178.63 3.58644 163.835 20.758 153.077C37.9225 142.324 61.667 135.656 87.9217 135.656C114.176 135.656 137.921 142.324 155.085 153.077C172.257 163.835 182.776 178.63 182.776 194.887Z" stroke="url(#paint4_linear_10_118)" stroke-opacity="0.6" stroke-width="1.03515" shape-rendering="crispEdges"/>
</g>
<circle cx="87.9203" cy="139.175" r="120.995" fill="url(#paint5_radial_10_118)"/>
<ellipse cx="87.9199" cy="159.18" rx="118.293" ry="69.2036" fill="url(#paint6_linear_10_118)" fill-opacity="0.5"/>
<path d="M205.695 159.18C205.695 178.03 192.631 195.191 171.304 207.667C149.99 220.137 120.51 227.866 87.9199 227.866C55.3296 227.866 25.8499 220.137 4.5355 207.667C-16.7914 195.191 -29.8555 178.03 -29.8555 159.18C-29.8555 140.329 -16.7914 123.169 4.5355 110.692C25.8499 98.2227 55.3296 90.4937 87.9199 90.4937C120.51 90.4937 149.99 98.2227 171.304 110.692C192.631 123.169 205.695 140.329 205.695 159.18Z" stroke="url(#paint7_linear_10_118)" stroke-opacity="0.6" stroke-width="1.03515"/>
<circle cx="87.9198" cy="139.174" r="89.6234" fill="url(#paint8_radial_10_118)"/>
<circle cx="87.9198" cy="139.174" r="89.6234" fill="url(#paint9_radial_10_118)"/>
<g filter="url(#filter3_d_10_118)">
<ellipse cx="87.9203" cy="116.215" rx="117.09" ry="67.6032" fill="url(#paint10_linear_10_118)" fill-opacity="0.5" shape-rendering="crispEdges"/>
<path d="M204.492 116.215C204.492 134.62 191.567 151.381 170.456 163.57C149.359 175.75 120.179 183.301 87.9203 183.301C55.6611 183.301 26.4813 175.75 5.38414 163.57C-15.7267 151.381 -28.6519 134.62 -28.6519 116.215C-28.6519 97.8101 -15.7267 81.0492 5.38414 68.8606C26.4813 56.6799 55.6611 49.1294 87.9203 49.1294C120.179 49.1294 149.359 56.6799 170.456 68.8606C191.567 81.0492 204.492 97.8101 204.492 116.215Z" stroke="url(#paint11_linear_10_118)" stroke-opacity="0.6" stroke-width="1.03515" shape-rendering="crispEdges"/>
</g>
<g filter="url(#filter4_d_10_118)">
<ellipse cx="87.9198" cy="81.306" rx="90.8582" ry="58.7284" fill="url(#paint12_linear_10_118)" fill-opacity="0.5" shape-rendering="crispEdges"/>
<path d="M178.26 81.306C178.26 97.2889 168.237 111.829 151.885 122.399C135.539 132.965 112.925 139.517 87.9198 139.517C62.9147 139.517 40.3009 132.965 23.9542 122.399C7.60233 111.829 -2.4209 97.2889 -2.4209 81.306C-2.4209 65.3231 7.60233 50.7829 23.9542 40.2135C40.3009 29.6474 62.9147 23.0952 87.9198 23.0952C112.925 23.0952 135.539 29.6474 151.885 40.2135C168.237 50.7829 178.26 65.3231 178.26 81.306Z" stroke="url(#paint13_linear_10_118)" stroke-opacity="0.6" stroke-width="1.03515" shape-rendering="crispEdges"/>
</g>
<ellipse cx="87.9216" cy="60.9078" rx="56.5524" ry="38.3302" fill="url(#paint14_linear_10_118)" fill-opacity="0.5"/>
<path d="M143.956 60.9078C143.956 71.2695 137.76 80.71 127.62 87.5829C117.482 94.4539 103.448 98.7204 87.9216 98.7204C72.3947 98.7204 58.3608 94.4539 48.2234 87.5829C38.083 80.71 31.8867 71.2695 31.8867 60.9078C31.8867 50.5461 38.083 41.1057 48.2234 34.2327C58.3608 27.3617 72.3947 23.0952 87.9216 23.0952C103.448 23.0952 117.482 27.3617 127.62 34.2327C137.76 41.1057 143.956 50.5461 143.956 60.9078Z" stroke="url(#paint15_linear_10_118)" stroke-opacity="0.6" stroke-width="1.03515"/>
<ellipse cx="87.9203" cy="47.8229" rx="32.7411" ry="22.528" fill="url(#paint16_linear_10_118)" fill-opacity="0.5"/>
<path d="M120.144 47.8229C120.144 53.8245 116.609 59.3145 110.778 63.3262C104.95 67.3363 96.8703 69.8333 87.9203 69.8333C78.9704 69.8333 70.8904 67.3363 65.0622 63.3262C59.2318 59.3145 55.6968 53.8245 55.6968 47.8229C55.6968 41.8213 59.2318 36.3313 65.0622 32.3196C70.8904 28.3094 78.9704 25.8125 87.9203 25.8125C96.8703 25.8125 104.95 28.3094 110.778 32.3196C116.609 36.3313 120.144 41.8213 120.144 47.8229Z" stroke="url(#paint17_linear_10_118)" stroke-opacity="0.6" stroke-width="1.03515"/>
<circle cx="87.9203" cy="139.174" r="120.995" fill="url(#paint18_radial_10_118)" fill-opacity="0.3"/>
<defs>
<filter id="filter0_dd_10_118" x="30.8072" y="293.281" width="114.864" height="114.864" filterUnits="userSpaceOnUse" color-interpolation-filters="sRGB">
<feFlood flood-opacity="0" result="BackgroundImageFix"/>
<feColorMatrix in="SourceAlpha" type="matrix" values="0 0 0 0 0 0 0 0 0 0 0 0 0 0 0 0 0 0 127 0" result="hardAlpha"/>
<feOffset dy="-2.07031"/>
<feGaussianBlur stdDeviation="18.1152"/>
<feComposite in2="hardAlpha" operator="out"/>
<feColorMatrix type="matrix" values="0 0 0 0 0.371081 0 0 0 0 0.235903 0 0 0 0 0.658333 0 0 0 1 0"/>
<feBlend mode="normal" in2="BackgroundImageFix" result="effect1_dropShadow_10_118"/>
<feColorMatrix in="SourceAlpha" type="matrix" values="0 0 0 0 0 0 0 0 0 0 0 0 0 0 0 0 0 0 127 0" result="hardAlpha"/>
<feOffset dy="-2.07031"/>
<feGaussianBlur stdDeviation="10.3515"/>
<feComposite in2="hardAlpha" operator="out"/>
<feColorMatrix type="matrix" values="0 0 0 0 0.48825 0 0 0 0 0.372778 0 0 0 0 0.733333 0 0 0 1 0"/>
<feBlend mode="normal" in2="effect1_dropShadow_10_118" result="effect2_dropShadow_10_118"/>
<feBlend mode="normal" in="SourceGraphic" in2="effect2_dropShadow_10_118" result="shape"/>
</filter>
<filter id="filter1_dd_10_118" x="100.981" y="231.129" width="103.831" height="103.831" filterUnits="userSpaceOnUse" color-interpolation-filters="sRGB">
<feFlood flood-opacity="0" result="BackgroundImageFix"/>
<feColorMatrix in="SourceAlpha" type="matrix" values="0 0 0 0 0 0 0 0 0 0 0 0 0 0 0 0 0 0 127 0" result="hardAlpha"/>
<feOffset dy="-2.07031"/>
<feGaussianBlur stdDeviation="18.1152"/>
<feComposite in2="hardAlpha" operator="out"/>
<feColorMatrix type="matrix" values="0 0 0 0 0.371081 0 0 0 0 0.235903 0 0 0 0 0.658333 0 0 0 1 0"/>
<feBlend mode="normal" in2="BackgroundImageFix" result="effect1_dropShadow_10_118"/>
<feColorMatrix in="SourceAlpha" type="matrix" values="0 0 0 0 0 0 0 0 0 0 0 0 0 0 0 0 0 0 127 0" result="hardAlpha"/>
<feOffset dy="-2.07031"/>
<feGaussianBlur stdDeviation="10.3515"/>
<feComposite in2="hardAlpha" operator="out"/>
<feColorMatrix type="matrix" values="0 0 0 0 0.48825 0 0 0 0 0.372778 0 0 0 0 0.733333 0 0 0 1 0"/>
<feBlend mode="normal" in2="effect1_dropShadow_10_118" result="effect2_dropShadow_10_118"/>
<feBlend mode="normal" in="SourceGraphic" in2="effect2_dropShadow_10_118" result="shape"/>
</filter>
<filter id="filter2_d_10_118" x="-17.8022" y="125.822" width="211.448" height="140.2" filterUnits="userSpaceOnUse" color-interpolation-filters="sRGB">
<feFlood flood-opacity="0" result="BackgroundImageFix"/>
<feColorMatrix in="SourceAlpha" type="matrix" values="0 0 0 0 0 0 0 0 0 0 0 0 0 0 0 0 0 0 127 0" result="hardAlpha"/>
<feOffset dy="1.03515"/>
<feGaussianBlur stdDeviation="5.17577"/>
<feComposite in2="hardAlpha" operator="out"/>
<feColorMatrix type="matrix" values="0 0 0 0 0.440043 0 0 0 0 0.20092 0 0 0 0 0.679167 0 0 0 0.3 0"/>
<feBlend mode="normal" in2="BackgroundImageFix" result="effect1_dropShadow_10_118"/>
<feBlend mode="normal" in="SourceGraphic" in2="effect1_dropShadow_10_118" result="shape"/>
</filter>
<filter id="filter3_d_10_118" x="-34.3452" y="44.4712" width="244.531" height="145.558" filterUnits="userSpaceOnUse" color-interpolation-filters="sRGB">
<feFlood flood-opacity="0" result="BackgroundImageFix"/>
<feColorMatrix in="SourceAlpha" type="matrix" values="0 0 0 0 0 0 0 0 0 0 0 0 0 0 0 0 0 0 127 0" result="hardAlpha"/>
<feOffset dy="1.03515"/>
<feGaussianBlur stdDeviation="2.58789"/>
<feComposite in2="hardAlpha" operator="out"/>
<feColorMatrix type="matrix" values="0 0 0 0 0.369333 0 0 0 0 0.0916667 0 0 0 0 0.5 0 0 0 0.15 0"/>
<feBlend mode="normal" in2="BackgroundImageFix" result="effect1_dropShadow_10_118"/>
<feBlend mode="normal" in="SourceGraphic" in2="effect1_dropShadow_10_118" result="shape"/>
</filter>
<filter id="filter4_d_10_118" x="-9.66698" y="15.8491" width="197.244" height="132.984" filterUnits="userSpaceOnUse" color-interpolation-filters="sRGB">
<feFlood flood-opacity="0" result="BackgroundImageFix"/>
<feColorMatrix in="SourceAlpha" type="matrix" values="0 0 0 0 0 0 0 0 0 0 0 0 0 0 0 0 0 0 127 0" result="hardAlpha"/>
<feOffset dx="1.03515" dy="1.03515"/>
<feGaussianBlur stdDeviation="3.88183"/>
<feComposite in2="hardAlpha" operator="out"/>
<feColorMatrix type="matrix" values="0 0 0 0 0.440043 0 0 0 0 0.20092 0 0 0 0 0.679167 0 0 0 0.2 0"/>
<feBlend mode="normal" in2="BackgroundImageFix" result="effect1_dropShadow_10_118"/>
<feBlend mode="normal" in="SourceGraphic" in2="effect1_dropShadow_10_118" result="shape"/>
</filter>
<linearGradient id="paint0_linear_10_118" x1="88.2393" y1="322.364" x2="88.2393" y2="396.724" gradientUnits="userSpaceOnUse">
<stop stop-color="white"/>
<stop offset="0.223958" stop-color="#6BE4FF"/>
<stop offset="0.623188" stop-color="#371B73" stop-opacity="0.6"/>
<stop offset="1" stop-color="#0A1153" stop-opacity="0.4"/>
</linearGradient>
<linearGradient id="paint1_linear_10_118" x1="152.896" y1="262.611" x2="152.896" y2="317.623" gradientUnits="userSpaceOnUse">
<stop stop-color="white"/>
<stop offset="0.223958" stop-color="#6BE4FF"/>
<stop offset="0.623188" stop-color="#371B73" stop-opacity="0.6"/>
<stop offset="1" stop-color="#0A1153" stop-opacity="0.4"/>
</linearGradient>
<radialGradient id="paint2_radial_10_118" cx="0" cy="0" r="1" gradientUnits="userSpaceOnUse" gradientTransform="translate(55.1793 159.179) rotate(90) scale(159.179)">
<stop stop-color="#FF65C1"/>
<stop offset="1" stop-color="#FF65C1" stop-opacity="0"/>
</radialGradient>
<linearGradient id="paint3_linear_10_118" x1="87.9217" y1="135.139" x2="87.9217" y2="254.635" gradientUnits="userSpaceOnUse">
<stop stop-color="#13154D"/>
<stop offset="1" stop-color="#8E92EE" stop-opacity="0"/>
</linearGradient>
<linearGradient id="paint4_linear_10_118" x1="135.29" y1="202.42" x2="140.687" y2="262.696" gradientUnits="userSpaceOnUse">
<stop stop-color="white" stop-opacity="0"/>
<stop offset="1" stop-color="white"/>
</linearGradient>
<radialGradient id="paint5_radial_10_118" cx="0" cy="0" r="1" gradientUnits="userSpaceOnUse" gradientTransform="translate(-33.0747 183.189) rotate(-19.6638) scale(256.976)">
<stop offset="0.249306" stop-color="white"/>
<stop offset="0.48315" stop-color="#FF8FED" stop-opacity="0.5"/>
<stop offset="0.627037" stop-color="#220C7A" stop-opacity="0.5"/>
</radialGradient>
<linearGradient id="paint6_linear_10_118" x1="-20.7197" y1="173.888" x2="203.489" y2="148.581" gradientUnits="userSpaceOnUse">
<stop stop-color="white"/>
<stop offset="1" stop-color="#12178E" stop-opacity="0.4"/>
</linearGradient>
<linearGradient id="paint7_linear_10_118" x1="106.702" y1="257.713" x2="70.9103" y2="172.323" gradientUnits="userSpaceOnUse">
<stop offset="0.0011346" stop-color="white"/>
<stop offset="1" stop-color="white" stop-opacity="0"/>
</linearGradient>
<radialGradient id="paint8_radial_10_118" cx="0" cy="0" r="1" gradientUnits="userSpaceOnUse" gradientTransform="translate(20.1334 184.685) rotate(-14.8494) scale(177.583)">
<stop offset="0.239373" stop-color="white"/>
<stop offset="0.410099" stop-color="#FFCEF1"/>
<stop offset="0.67492" stop-color="#B6B9FF"/>
<stop offset="0.861176" stop-color="#FFA8E7"/>
<stop offset="1" stop-color="white"/>
</radialGradient>
<radialGradient id="paint9_radial_10_118" cx="0" cy="0" r="1" gradientUnits="userSpaceOnUse" gradientTransform="translate(172.828 208.449) rotate(-121.724) scale(102.111)">
<stop stop-color="#3F52FF"/>
<stop offset="1" stop-color="#3F52FF" stop-opacity="0"/>
</radialGradient>
<linearGradient id="paint10_linear_10_118" x1="-26.648" y1="111.556" x2="205.01" y2="118.753" gradientUnits="userSpaceOnUse">
<stop stop-color="white"/>
<stop offset="1" stop-color="#5653FF" stop-opacity="0.2"/>
</linearGradient>
<linearGradient id="paint11_linear_10_118" x1="72.5011" y1="231.549" x2="65.2215" y2="121.275" gradientUnits="userSpaceOnUse">
<stop stop-color="white"/>
<stop offset="1" stop-color="white" stop-opacity="0"/>
</linearGradient>
<linearGradient id="paint12_linear_10_118" x1="87.9198" y1="22.5776" x2="87.9198" y2="140.034" gradientUnits="userSpaceOnUse">
<stop stop-color="#13154D" stop-opacity="0.5"/>
<stop offset="1" stop-color="#8E92EE" stop-opacity="0"/>
</linearGradient>
<linearGradient id="paint13_linear_10_118" x1="103.8" y1="165.535" x2="115.851" y2="35.6526" gradientUnits="userSpaceOnUse">
<stop stop-color="white"/>
<stop offset="1" stop-color="white" stop-opacity="0"/>
</linearGradient>
<linearGradient id="paint14_linear_10_118" x1="87.9216" y1="22.5776" x2="87.9216" y2="99.238" gradientUnits="userSpaceOnUse">
<stop stop-color="#13154D"/>
<stop offset="1" stop-color="#8E92EE" stop-opacity="0"/>
</linearGradient>
<linearGradient id="paint15_linear_10_118" x1="110.548" y1="155.639" x2="87.9216" y2="22.5776" gradientUnits="userSpaceOnUse">
<stop stop-color="white"/>
<stop offset="1" stop-color="white" stop-opacity="0"/>
</linearGradient>
<linearGradient id="paint16_linear_10_118" x1="87.9203" y1="25.2949" x2="87.9203" y2="70.3509" gradientUnits="userSpaceOnUse">
<stop stop-color="#13154D"/>
<stop offset="1" stop-color="#8E92EE" stop-opacity="0"/>
</linearGradient>
<linearGradient id="paint17_linear_10_118" x1="105.599" y1="117.854" x2="87.9203" y2="25.2949" gradientUnits="userSpaceOnUse">
<stop stop-color="white"/>
<stop offset="1" stop-color="white" stop-opacity="0"/>
</linearGradient>
<radialGradient id="paint18_radial_10_118" cx="0" cy="0" r="1" gradientUnits="userSpaceOnUse" gradientTransform="translate(-33.0747 183.189) rotate(-19.6638) scale(256.976)">
<stop offset="0.249306" stop-color="white"/>
<stop offset="0.48315" stop-color="#FF8FED" stop-opacity="0.5"/>
<stop offset="0.627037" stop-color="#220C7A" stop-opacity="0"/>
</radialGradient>
</defs>
</svg>
