<svg width="534" height="437" viewBox="0 0 534 437" fill="none" xmlns="http://www.w3.org/2000/svg">
<circle cx="315.02" cy="218.583" r="147.322" fill="url(#paint0_radial_9_53)" fill-opacity="0.5"/>
<circle cx="315.021" cy="218.535" r="218.22" fill="url(#paint1_radial_9_53)" fill-opacity="0.6"/>
<g filter="url(#filter0_d_9_53)">
<ellipse cx="315.021" cy="286.419" rx="116.124" ry="72.7485" fill="url(#paint2_linear_9_53)" fill-opacity="0.5" shape-rendering="crispEdges"/>
<path d="M430.627 286.419C430.627 306.265 417.785 324.311 396.858 337.421C375.939 350.527 347.006 358.65 315.021 358.65C283.036 358.65 254.103 350.527 233.184 337.421C212.257 324.311 199.415 306.265 199.415 286.419C199.415 266.572 212.257 248.526 233.184 235.416C254.103 222.311 283.036 214.188 315.021 214.188C347.006 214.188 375.939 222.311 396.858 235.416C417.785 248.526 430.627 266.572 430.627 286.419Z" stroke="url(#paint3_linear_9_53)" stroke-opacity="0.6" stroke-width="1.03515" shape-rendering="crispEdges"/>
</g>
<circle cx="315.02" cy="218.584" r="147.322" fill="url(#paint4_radial_9_53)"/>
<g filter="url(#filter1_d_9_53)">
<ellipse cx="315.021" cy="242.943" rx="144.032" ry="84.2613" fill="url(#paint5_linear_9_53)" fill-opacity="0.5" shape-rendering="crispEdges"/>
</g>
<g filter="url(#filter2_d_9_53)">
<ellipse cx="315.021" cy="190.63" rx="142.567" ry="82.3127" fill="url(#paint6_linear_9_53)" fill-opacity="0.5" shape-rendering="crispEdges"/>
<path d="M457.07 190.63C457.07 213.096 441.293 233.535 415.572 248.385C389.864 263.228 354.315 272.425 315.021 272.425C275.726 272.425 240.177 263.228 214.47 248.385C188.748 233.535 172.972 213.096 172.972 190.63C172.972 168.163 188.748 147.724 214.47 132.874C240.177 118.031 275.726 108.834 315.021 108.834C354.315 108.834 389.864 118.031 415.572 132.874C441.293 147.724 457.07 168.163 457.07 190.63Z" stroke="url(#paint7_linear_9_53)" stroke-opacity="0.6" stroke-width="1.03515" shape-rendering="crispEdges"/>
</g>
<g filter="url(#filter3_d_9_53)">
<ellipse cx="315.022" cy="123.287" rx="68.8574" ry="46.6703" fill="url(#paint8_linear_9_53)" fill-opacity="0.5" shape-rendering="crispEdges"/>
</g>
<circle cx="315.019" cy="218.583" r="109.124" fill="url(#paint9_radial_9_53)"/>
<g filter="url(#filter4_d_9_53)">
<path d="M425.129 148.124C425.129 167.636 412.893 185.37 392.963 198.252C373.039 211.131 345.483 219.113 315.019 219.113C284.555 219.113 256.998 211.131 237.074 198.252C217.145 185.37 204.909 167.636 204.909 148.124C204.909 128.612 217.145 110.878 237.074 97.9957C256.998 85.1172 284.555 77.1348 315.019 77.1348C345.483 77.1348 373.039 85.1172 392.963 97.9957C412.893 110.878 425.129 128.612 425.129 148.124Z" stroke="url(#paint10_linear_9_53)" stroke-opacity="0.6" stroke-width="1.03515" shape-rendering="crispEdges"/>
</g>
<g filter="url(#filter5_d_9_53)">
<path d="M457.07 190.63C457.07 213.096 441.293 233.535 415.572 248.385C389.864 263.228 354.315 272.425 315.021 272.425C275.726 272.425 240.177 263.228 214.47 248.385C188.748 233.535 172.972 213.096 172.972 190.63C172.972 168.163 188.748 147.724 214.47 132.874C240.177 118.031 275.726 108.834 315.021 108.834C354.315 108.834 389.864 118.031 415.572 132.874C441.293 147.724 457.07 168.163 457.07 190.63Z" stroke="url(#paint11_linear_9_53)" stroke-opacity="0.6" stroke-width="1.03515" shape-rendering="crispEdges"/>
</g>
<g filter="url(#filter6_d_9_53)">
<path d="M458.535 242.942C458.535 265.951 442.59 286.876 416.605 302.078C390.633 317.272 354.718 326.686 315.021 326.686C275.323 326.686 239.408 317.272 213.436 302.078C187.451 286.876 171.506 265.951 171.506 242.942C171.506 219.934 187.451 199.009 213.436 183.807C239.408 168.613 275.323 159.199 315.021 159.199C354.718 159.199 390.633 168.613 416.605 183.807C442.59 199.009 458.535 219.934 458.535 242.942Z" stroke="url(#paint12_linear_9_53)" stroke-opacity="0.6" stroke-width="1.03515" shape-rendering="crispEdges"/>
</g>
<g filter="url(#filter7_d_9_53)">
<path d="M383.362 123.287C383.362 135.952 375.788 147.478 363.421 155.86C351.057 164.24 333.947 169.44 315.022 169.44C296.097 169.44 278.987 164.24 266.623 155.86C254.256 147.478 246.682 135.952 246.682 123.287C246.682 110.623 254.256 99.0972 266.623 90.715C278.987 82.3348 296.097 77.1348 315.022 77.1348C333.947 77.1348 351.057 82.3348 363.421 90.715C375.788 99.0972 383.362 110.623 383.362 123.287Z" stroke="url(#paint13_linear_9_53)" stroke-opacity="0.6" stroke-width="1.03515" shape-rendering="crispEdges"/>
</g>
<circle cx="84.0922" cy="123.339" r="83.6074" fill="url(#paint14_radial_9_53)" fill-opacity="0.6"/>
<g filter="url(#filter8_d_9_53)">
<ellipse cx="73.8124" cy="146.549" rx="52.5358" ry="32.9122" fill="url(#paint15_linear_9_53)" fill-opacity="0.5" shape-rendering="crispEdges"/>
<path d="M125.831 146.549C125.831 155.395 120.106 163.481 110.686 169.383C101.273 175.279 88.238 178.943 73.8124 178.943C59.3867 178.943 46.3513 175.279 36.9388 169.383C27.5191 163.481 21.7942 155.395 21.7942 146.549C21.7942 137.702 27.5191 129.616 36.9388 123.715C46.3513 117.818 59.3867 114.154 73.8124 114.154C88.238 114.154 101.273 117.818 110.686 123.715C120.106 129.616 125.831 137.702 125.831 146.549Z" stroke="url(#paint16_linear_9_53)" stroke-opacity="0.6" stroke-width="1.03515" shape-rendering="crispEdges"/>
</g>
<circle cx="73.8128" cy="115.859" r="66.65" fill="url(#paint17_radial_9_53)"/>
<g filter="url(#filter9_d_9_53)">
<ellipse cx="73.8127" cy="126.879" rx="65.1615" ry="38.1208" fill="url(#paint18_linear_9_53)" fill-opacity="0.5" shape-rendering="crispEdges"/>
<path d="M138.457 126.879C138.457 137.146 131.339 146.536 119.627 153.388C107.928 160.232 91.7311 164.482 73.8127 164.482C55.8942 164.482 39.6974 160.232 27.9979 153.388C16.2859 146.536 9.1687 137.146 9.1687 126.879C9.1687 116.612 16.2859 107.222 27.9979 100.37C39.6974 93.5256 55.8942 89.2756 73.8127 89.2756C91.7311 89.2756 107.928 93.5256 119.627 100.37C131.339 107.222 138.457 116.612 138.457 126.879Z" stroke="url(#paint19_linear_9_53)" stroke-opacity="0.6" stroke-width="1.03515" shape-rendering="crispEdges"/>
</g>
<circle cx="73.814" cy="115.859" r="49.369" fill="url(#paint20_radial_9_53)"/>
<circle cx="73.814" cy="115.859" r="49.369" fill="url(#paint21_radial_9_53)"/>
<g filter="url(#filter10_d_9_53)">
<ellipse cx="73.8144" cy="103.213" rx="64.4987" ry="37.2392" fill="url(#paint22_linear_9_53)" fill-opacity="0.5" shape-rendering="crispEdges"/>
<path d="M137.796 103.213C137.796 113.233 130.757 122.403 119.163 129.097C107.583 135.783 91.5509 139.934 73.8144 139.934C56.0778 139.934 40.0458 135.783 28.4657 129.097C16.872 122.403 9.83325 113.233 9.83325 103.213C9.83325 93.1927 16.872 84.0228 28.4657 77.329C40.0458 70.6431 56.0778 66.4912 73.8144 66.4912C91.5509 66.4912 107.583 70.6431 119.163 77.329C130.757 84.0228 137.796 93.1927 137.796 103.213Z" stroke="url(#paint23_linear_9_53)" stroke-opacity="0.6" stroke-width="1.03515" shape-rendering="crispEdges"/>
</g>
<g filter="url(#filter11_d_9_53)">
<ellipse cx="73.8118" cy="83.9833" rx="50.0491" ry="32.3504" fill="url(#paint24_linear_9_53)" fill-opacity="0.5" shape-rendering="crispEdges"/>
<path d="M123.343 83.9833C123.343 92.6821 117.888 100.628 108.921 106.424C99.9593 112.216 87.5478 115.816 73.8118 115.816C60.0759 115.816 47.6644 112.216 38.7027 106.424C29.7358 100.628 24.2803 92.6821 24.2803 83.9833C24.2803 75.2844 29.7358 67.3387 38.7027 61.5427C47.6644 55.7501 60.0759 52.1504 73.8118 52.1504C87.5478 52.1504 99.9593 55.7501 108.921 61.5427C117.888 67.3387 123.343 75.2844 123.343 83.9833Z" stroke="url(#paint25_linear_9_53)" stroke-opacity="0.6" stroke-width="1.03515" shape-rendering="crispEdges"/>
</g>
<g filter="url(#filter12_d_9_53)">
<ellipse cx="73.8137" cy="72.7469" rx="31.1518" ry="21.1141" fill="url(#paint26_linear_9_53)" fill-opacity="0.5" shape-rendering="crispEdges"/>
<path d="M104.448 72.7469C104.448 78.3545 101.095 83.491 95.551 87.2485C90.0101 91.004 82.3264 93.3435 73.8137 93.3435C65.301 93.3435 57.6173 91.004 52.0764 87.2485C46.5327 83.491 43.1794 78.3545 43.1794 72.7469C43.1794 67.1393 46.5327 62.0029 52.0764 58.2454C57.6173 54.4899 65.301 52.1504 73.8137 52.1504C82.3264 52.1504 90.0101 54.4899 95.551 58.2454C101.095 62.0029 104.448 67.1393 104.448 72.7469Z" stroke="url(#paint27_linear_9_53)" stroke-opacity="0.6" stroke-width="1.03515" shape-rendering="crispEdges"/>
</g>
<circle cx="73.8128" cy="115.859" r="66.65" fill="url(#paint28_radial_9_53)" fill-opacity="0.9"/>
<defs>
<filter id="filter0_d_9_53" x="192.168" y="206.942" width="247.775" height="161.024" filterUnits="userSpaceOnUse" color-interpolation-filters="sRGB">
<feFlood flood-opacity="0" result="BackgroundImageFix"/>
<feColorMatrix in="SourceAlpha" type="matrix" values="0 0 0 0 0 0 0 0 0 0 0 0 0 0 0 0 0 0 127 0" result="hardAlpha"/>
<feOffset dx="1.03515" dy="1.03515"/>
<feGaussianBlur stdDeviation="3.88183"/>
<feComposite in2="hardAlpha" operator="out"/>
<feColorMatrix type="matrix" values="0 0 0 0 0.440043 0 0 0 0 0.20092 0 0 0 0 0.679167 0 0 0 0.2 0"/>
<feBlend mode="normal" in2="BackgroundImageFix" result="effect1_dropShadow_9_53"/>
<feBlend mode="normal" in="SourceGraphic" in2="effect1_dropShadow_9_53" result="shape"/>
</filter>
<filter id="filter1_d_9_53" x="164.26" y="151.953" width="303.591" height="184.05" filterUnits="userSpaceOnUse" color-interpolation-filters="sRGB">
<feFlood flood-opacity="0" result="BackgroundImageFix"/>
<feColorMatrix in="SourceAlpha" type="matrix" values="0 0 0 0 0 0 0 0 0 0 0 0 0 0 0 0 0 0 127 0" result="hardAlpha"/>
<feOffset dx="1.03515" dy="1.03515"/>
<feGaussianBlur stdDeviation="3.88183"/>
<feComposite in2="hardAlpha" operator="out"/>
<feColorMatrix type="matrix" values="0 0 0 0 0.440043 0 0 0 0 0.20092 0 0 0 0 0.679167 0 0 0 0.2 0"/>
<feBlend mode="normal" in2="BackgroundImageFix" result="effect1_dropShadow_9_53"/>
<feBlend mode="normal" in="SourceGraphic" in2="effect1_dropShadow_9_53" result="shape"/>
</filter>
<filter id="filter2_d_9_53" x="165.726" y="101.588" width="300.661" height="180.153" filterUnits="userSpaceOnUse" color-interpolation-filters="sRGB">
<feFlood flood-opacity="0" result="BackgroundImageFix"/>
<feColorMatrix in="SourceAlpha" type="matrix" values="0 0 0 0 0 0 0 0 0 0 0 0 0 0 0 0 0 0 127 0" result="hardAlpha"/>
<feOffset dx="1.03515" dy="1.03515"/>
<feGaussianBlur stdDeviation="3.88183"/>
<feComposite in2="hardAlpha" operator="out"/>
<feColorMatrix type="matrix" values="0 0 0 0 0.440043 0 0 0 0 0.20092 0 0 0 0 0.679167 0 0 0 0.2 0"/>
<feBlend mode="normal" in2="BackgroundImageFix" result="effect1_dropShadow_9_53"/>
<feBlend mode="normal" in="SourceGraphic" in2="effect1_dropShadow_9_53" result="shape"/>
</filter>
<filter id="filter3_d_9_53" x="239.436" y="69.8887" width="153.242" height="108.868" filterUnits="userSpaceOnUse" color-interpolation-filters="sRGB">
<feFlood flood-opacity="0" result="BackgroundImageFix"/>
<feColorMatrix in="SourceAlpha" type="matrix" values="0 0 0 0 0 0 0 0 0 0 0 0 0 0 0 0 0 0 127 0" result="hardAlpha"/>
<feOffset dx="1.03515" dy="1.03515"/>
<feGaussianBlur stdDeviation="3.88183"/>
<feComposite in2="hardAlpha" operator="out"/>
<feColorMatrix type="matrix" values="0 0 0 0 0.440043 0 0 0 0 0.20092 0 0 0 0 0.679167 0 0 0 0.2 0"/>
<feBlend mode="normal" in2="BackgroundImageFix" result="effect1_dropShadow_9_53"/>
<feBlend mode="normal" in="SourceGraphic" in2="effect1_dropShadow_9_53" result="shape"/>
</filter>
<filter id="filter4_d_9_53" x="197.663" y="69.8887" width="236.783" height="158.541" filterUnits="userSpaceOnUse" color-interpolation-filters="sRGB">
<feFlood flood-opacity="0" result="BackgroundImageFix"/>
<feColorMatrix in="SourceAlpha" type="matrix" values="0 0 0 0 0 0 0 0 0 0 0 0 0 0 0 0 0 0 127 0" result="hardAlpha"/>
<feOffset dx="1.03515" dy="1.03515"/>
<feGaussianBlur stdDeviation="3.88183"/>
<feComposite in2="hardAlpha" operator="out"/>
<feColorMatrix type="matrix" values="0 0 0 0 0.440043 0 0 0 0 0.20092 0 0 0 0 0.679167 0 0 0 0.2 0"/>
<feBlend mode="normal" in2="BackgroundImageFix" result="effect1_dropShadow_9_53"/>
<feBlend mode="normal" in="SourceGraphic" in2="effect1_dropShadow_9_53" result="shape"/>
</filter>
<filter id="filter5_d_9_53" x="165.726" y="101.588" width="300.661" height="180.153" filterUnits="userSpaceOnUse" color-interpolation-filters="sRGB">
<feFlood flood-opacity="0" result="BackgroundImageFix"/>
<feColorMatrix in="SourceAlpha" type="matrix" values="0 0 0 0 0 0 0 0 0 0 0 0 0 0 0 0 0 0 127 0" result="hardAlpha"/>
<feOffset dx="1.03515" dy="1.03515"/>
<feGaussianBlur stdDeviation="3.88183"/>
<feComposite in2="hardAlpha" operator="out"/>
<feColorMatrix type="matrix" values="0 0 0 0 0.440043 0 0 0 0 0.20092 0 0 0 0 0.679167 0 0 0 0.2 0"/>
<feBlend mode="normal" in2="BackgroundImageFix" result="effect1_dropShadow_9_53"/>
<feBlend mode="normal" in="SourceGraphic" in2="effect1_dropShadow_9_53" result="shape"/>
</filter>
<filter id="filter6_d_9_53" x="164.26" y="151.953" width="303.591" height="184.05" filterUnits="userSpaceOnUse" color-interpolation-filters="sRGB">
<feFlood flood-opacity="0" result="BackgroundImageFix"/>
<feColorMatrix in="SourceAlpha" type="matrix" values="0 0 0 0 0 0 0 0 0 0 0 0 0 0 0 0 0 0 127 0" result="hardAlpha"/>
<feOffset dx="1.03515" dy="1.03515"/>
<feGaussianBlur stdDeviation="3.88183"/>
<feComposite in2="hardAlpha" operator="out"/>
<feColorMatrix type="matrix" values="0 0 0 0 0.440043 0 0 0 0 0.20092 0 0 0 0 0.679167 0 0 0 0.2 0"/>
<feBlend mode="normal" in2="BackgroundImageFix" result="effect1_dropShadow_9_53"/>
<feBlend mode="normal" in="SourceGraphic" in2="effect1_dropShadow_9_53" result="shape"/>
</filter>
<filter id="filter7_d_9_53" x="239.436" y="69.8887" width="153.242" height="108.868" filterUnits="userSpaceOnUse" color-interpolation-filters="sRGB">
<feFlood flood-opacity="0" result="BackgroundImageFix"/>
<feColorMatrix in="SourceAlpha" type="matrix" values="0 0 0 0 0 0 0 0 0 0 0 0 0 0 0 0 0 0 127 0" result="hardAlpha"/>
<feOffset dx="1.03515" dy="1.03515"/>
<feGaussianBlur stdDeviation="3.88183"/>
<feComposite in2="hardAlpha" operator="out"/>
<feColorMatrix type="matrix" values="0 0 0 0 0.440043 0 0 0 0 0.20092 0 0 0 0 0.679167 0 0 0 0.2 0"/>
<feBlend mode="normal" in2="BackgroundImageFix" result="effect1_dropShadow_9_53"/>
<feBlend mode="normal" in="SourceGraphic" in2="effect1_dropShadow_9_53" result="shape"/>
</filter>
<filter id="filter8_d_9_53" x="14.5481" y="106.908" width="120.599" height="81.3518" filterUnits="userSpaceOnUse" color-interpolation-filters="sRGB">
<feFlood flood-opacity="0" result="BackgroundImageFix"/>
<feColorMatrix in="SourceAlpha" type="matrix" values="0 0 0 0 0 0 0 0 0 0 0 0 0 0 0 0 0 0 127 0" result="hardAlpha"/>
<feOffset dx="1.03515" dy="1.03515"/>
<feGaussianBlur stdDeviation="3.88183"/>
<feComposite in2="hardAlpha" operator="out"/>
<feColorMatrix type="matrix" values="0 0 0 0 0.440043 0 0 0 0 0.20092 0 0 0 0 0.679167 0 0 0 0.2 0"/>
<feBlend mode="normal" in2="BackgroundImageFix" result="effect1_dropShadow_9_53"/>
<feBlend mode="normal" in="SourceGraphic" in2="effect1_dropShadow_9_53" result="shape"/>
</filter>
<filter id="filter9_d_9_53" x="1.92262" y="82.0296" width="145.85" height="91.7688" filterUnits="userSpaceOnUse" color-interpolation-filters="sRGB">
<feFlood flood-opacity="0" result="BackgroundImageFix"/>
<feColorMatrix in="SourceAlpha" type="matrix" values="0 0 0 0 0 0 0 0 0 0 0 0 0 0 0 0 0 0 127 0" result="hardAlpha"/>
<feOffset dx="1.03515" dy="1.03515"/>
<feGaussianBlur stdDeviation="3.88183"/>
<feComposite in2="hardAlpha" operator="out"/>
<feColorMatrix type="matrix" values="0 0 0 0 0.440043 0 0 0 0 0.20092 0 0 0 0 0.679167 0 0 0 0.2 0"/>
<feBlend mode="normal" in2="BackgroundImageFix" result="effect1_dropShadow_9_53"/>
<feBlend mode="normal" in="SourceGraphic" in2="effect1_dropShadow_9_53" result="shape"/>
</filter>
<filter id="filter10_d_9_53" x="2.58717" y="59.2451" width="144.525" height="90.0056" filterUnits="userSpaceOnUse" color-interpolation-filters="sRGB">
<feFlood flood-opacity="0" result="BackgroundImageFix"/>
<feColorMatrix in="SourceAlpha" type="matrix" values="0 0 0 0 0 0 0 0 0 0 0 0 0 0 0 0 0 0 127 0" result="hardAlpha"/>
<feOffset dx="1.03515" dy="1.03515"/>
<feGaussianBlur stdDeviation="3.88183"/>
<feComposite in2="hardAlpha" operator="out"/>
<feColorMatrix type="matrix" values="0 0 0 0 0.440043 0 0 0 0 0.20092 0 0 0 0 0.679167 0 0 0 0.2 0"/>
<feBlend mode="normal" in2="BackgroundImageFix" result="effect1_dropShadow_9_53"/>
<feBlend mode="normal" in="SourceGraphic" in2="effect1_dropShadow_9_53" result="shape"/>
</filter>
<filter id="filter11_d_9_53" x="17.0342" y="44.9043" width="115.626" height="80.2282" filterUnits="userSpaceOnUse" color-interpolation-filters="sRGB">
<feFlood flood-opacity="0" result="BackgroundImageFix"/>
<feColorMatrix in="SourceAlpha" type="matrix" values="0 0 0 0 0 0 0 0 0 0 0 0 0 0 0 0 0 0 127 0" result="hardAlpha"/>
<feOffset dx="1.03515" dy="1.03515"/>
<feGaussianBlur stdDeviation="3.88183"/>
<feComposite in2="hardAlpha" operator="out"/>
<feColorMatrix type="matrix" values="0 0 0 0 0.440043 0 0 0 0 0.20092 0 0 0 0 0.679167 0 0 0 0.2 0"/>
<feBlend mode="normal" in2="BackgroundImageFix" result="effect1_dropShadow_9_53"/>
<feBlend mode="normal" in="SourceGraphic" in2="effect1_dropShadow_9_53" result="shape"/>
</filter>
<filter id="filter12_d_9_53" x="35.9334" y="44.9043" width="77.831" height="57.7556" filterUnits="userSpaceOnUse" color-interpolation-filters="sRGB">
<feFlood flood-opacity="0" result="BackgroundImageFix"/>
<feColorMatrix in="SourceAlpha" type="matrix" values="0 0 0 0 0 0 0 0 0 0 0 0 0 0 0 0 0 0 127 0" result="hardAlpha"/>
<feOffset dx="1.03515" dy="1.03515"/>
<feGaussianBlur stdDeviation="3.88183"/>
<feComposite in2="hardAlpha" operator="out"/>
<feColorMatrix type="matrix" values="0 0 0 0 0.440043 0 0 0 0 0.20092 0 0 0 0 0.679167 0 0 0 0.2 0"/>
<feBlend mode="normal" in2="BackgroundImageFix" result="effect1_dropShadow_9_53"/>
<feBlend mode="normal" in="SourceGraphic" in2="effect1_dropShadow_9_53" result="shape"/>
</filter>
<radialGradient id="paint0_radial_9_53" cx="0" cy="0" r="1" gradientUnits="userSpaceOnUse" gradientTransform="translate(255.853 384.515) rotate(-64.0757) scale(330.71)">
<stop offset="0.107416" stop-color="white" stop-opacity="0.5"/>
<stop offset="0.328407" stop-color="#8FB5FF" stop-opacity="0.5"/>
<stop offset="0.629496" stop-color="#220C7A" stop-opacity="0"/>
</radialGradient>
<radialGradient id="paint1_radial_9_53" cx="0" cy="0" r="1" gradientUnits="userSpaceOnUse" gradientTransform="translate(315.021 218.535) rotate(90) scale(218.22)">
<stop stop-color="#3E5DFF"/>
<stop offset="1" stop-color="#3E5DFF" stop-opacity="0"/>
</radialGradient>
<linearGradient id="paint2_linear_9_53" x1="431.145" y1="270.673" x2="198.97" y2="287.43" gradientUnits="userSpaceOnUse">
<stop stop-color="#4E53BE" stop-opacity="0.5"/>
<stop offset="0.885417" stop-color="#33CEFF" stop-opacity="0.7"/>
<stop offset="1" stop-color="white" stop-opacity="0.5"/>
</linearGradient>
<linearGradient id="paint3_linear_9_53" x1="335.317" y1="390.755" x2="349.794" y2="229.783" gradientUnits="userSpaceOnUse">
<stop stop-color="white"/>
<stop offset="1" stop-color="white" stop-opacity="0"/>
</linearGradient>
<radialGradient id="paint4_radial_9_53" cx="0" cy="0" r="1" gradientUnits="userSpaceOnUse" gradientTransform="translate(167.698 272.176) rotate(-19.6638) scale(312.89)">
<stop offset="0.249306" stop-color="white"/>
<stop offset="0.48315" stop-color="#8FF2FF" stop-opacity="0.5"/>
<stop offset="0.627037" stop-color="#220C7A" stop-opacity="0.1"/>
</radialGradient>
<linearGradient id="paint5_linear_9_53" x1="444.245" y1="238.071" x2="171.109" y2="246.741" gradientUnits="userSpaceOnUse">
<stop stop-color="#4E53BE" stop-opacity="0.1"/>
<stop offset="1" stop-color="#33CEFF"/>
</linearGradient>
<linearGradient id="paint6_linear_9_53" x1="423.122" y1="183.308" x2="172.632" y2="194.575" gradientUnits="userSpaceOnUse">
<stop stop-color="#4E53BE" stop-opacity="0.1"/>
<stop offset="0.997187" stop-color="#33CEFF"/>
</linearGradient>
<linearGradient id="paint7_linear_9_53" x1="339.939" y1="308.683" x2="355.053" y2="126.328" gradientUnits="userSpaceOnUse">
<stop stop-color="white"/>
<stop offset="1" stop-color="white" stop-opacity="0"/>
</linearGradient>
<linearGradient id="paint8_linear_9_53" x1="383.879" y1="113.186" x2="246.104" y2="122.377" gradientUnits="userSpaceOnUse">
<stop stop-color="#4E53BE" stop-opacity="0.1"/>
<stop offset="1" stop-color="#33CEFF" stop-opacity="0.9"/>
</linearGradient>
<radialGradient id="paint9_radial_9_53" cx="0" cy="0" r="1" gradientUnits="userSpaceOnUse" gradientTransform="translate(336.283 424.261) rotate(-83.1976) scale(317.034)">
<stop offset="0.338542" stop-color="#68FFF6" stop-opacity="0.1"/>
<stop offset="0.802083" stop-color="#FFBFE9"/>
<stop offset="1" stop-color="white"/>
</radialGradient>
<linearGradient id="paint10_linear_9_53" x1="327.561" y1="219.631" x2="334.955" y2="89.9595" gradientUnits="userSpaceOnUse">
<stop stop-color="white"/>
<stop offset="1" stop-color="white" stop-opacity="0"/>
</linearGradient>
<linearGradient id="paint11_linear_9_53" x1="322.105" y1="275.102" x2="338.985" y2="121.441" gradientUnits="userSpaceOnUse">
<stop stop-color="white"/>
<stop offset="1" stop-color="white" stop-opacity="0"/>
</linearGradient>
<linearGradient id="paint12_linear_9_53" x1="325.516" y1="330.019" x2="328.362" y2="168.318" gradientUnits="userSpaceOnUse">
<stop stop-color="white"/>
<stop offset="1" stop-color="white" stop-opacity="0"/>
</linearGradient>
<linearGradient id="paint13_linear_9_53" x1="327.057" y1="190.222" x2="337.091" y2="87.0952" gradientUnits="userSpaceOnUse">
<stop stop-color="white"/>
<stop offset="1" stop-color="white" stop-opacity="0"/>
</linearGradient>
<radialGradient id="paint14_radial_9_53" cx="0" cy="0" r="1" gradientUnits="userSpaceOnUse" gradientTransform="translate(84.0922 123.339) rotate(90) scale(83.6074)">
<stop stop-color="#FF65C1"/>
<stop offset="1" stop-color="#FF65C1" stop-opacity="0"/>
</radialGradient>
<linearGradient id="paint15_linear_9_53" x1="126.348" y1="139.425" x2="21.3096" y2="147.006" gradientUnits="userSpaceOnUse">
<stop stop-color="#4E53BE" stop-opacity="0.5"/>
<stop offset="0.885417" stop-color="#FB33FF" stop-opacity="0.5"/>
<stop offset="1" stop-color="white" stop-opacity="0.5"/>
</linearGradient>
<linearGradient id="paint16_linear_9_53" x1="82.9947" y1="193.752" x2="89.5438" y2="120.926" gradientUnits="userSpaceOnUse">
<stop stop-color="white"/>
<stop offset="1" stop-color="white" stop-opacity="0"/>
</linearGradient>
<radialGradient id="paint17_radial_9_53" cx="0" cy="0" r="1" gradientUnits="userSpaceOnUse" gradientTransform="translate(7.16285 140.104) rotate(-19.6638) scale(141.555)">
<stop offset="0.249306" stop-color="white"/>
<stop offset="0.48315" stop-color="#FF8FED" stop-opacity="0.5"/>
<stop offset="0.627037" stop-color="#220C7A" stop-opacity="0.5"/>
</radialGradient>
<linearGradient id="paint18_linear_9_53" x1="138.974" y1="118.628" x2="8.79106" y2="128.689" gradientUnits="userSpaceOnUse">
<stop stop-color="#4E53BE" stop-opacity="0.5"/>
<stop offset="0.885417" stop-color="#FB33FF" stop-opacity="0.5"/>
<stop offset="1" stop-color="white" stop-opacity="0.5"/>
</linearGradient>
<linearGradient id="paint19_linear_9_53" x1="85.2017" y1="181.552" x2="92.2927" y2="97.1147" gradientUnits="userSpaceOnUse">
<stop stop-color="white"/>
<stop offset="1" stop-color="white" stop-opacity="0"/>
</linearGradient>
<radialGradient id="paint20_radial_9_53" cx="0" cy="0" r="1" gradientUnits="userSpaceOnUse" gradientTransform="translate(89.6796 165.228) rotate(-107.749) scale(99.169)">
<stop offset="0.223958" stop-color="white"/>
<stop offset="0.466382" stop-color="#FFCEF1"/>
<stop offset="0.682292" stop-color="#B6B9FF"/>
<stop offset="0.881791" stop-color="white"/>
</radialGradient>
<radialGradient id="paint21_radial_9_53" cx="0" cy="0" r="1" gradientUnits="userSpaceOnUse" gradientTransform="translate(98.2063 165.228) rotate(-100.377) scale(135.421)">
<stop stop-color="white"/>
<stop offset="1" stop-color="white" stop-opacity="0"/>
</radialGradient>
<linearGradient id="paint22_linear_9_53" x1="138.313" y1="95.1525" x2="9.47461" y2="105.242" gradientUnits="userSpaceOnUse">
<stop stop-color="#4E53BE" stop-opacity="0.5"/>
<stop offset="0.885417" stop-color="#FB33FF" stop-opacity="0.5"/>
<stop offset="1" stop-color="white" stop-opacity="0.5"/>
</linearGradient>
<linearGradient id="paint23_linear_9_53" x1="85.0876" y1="156.622" x2="91.9252" y2="74.122" gradientUnits="userSpaceOnUse">
<stop stop-color="white"/>
<stop offset="1" stop-color="white" stop-opacity="0"/>
</linearGradient>
<linearGradient id="paint24_linear_9_53" x1="123.861" y1="76.9811" x2="23.7627" y2="83.9833" gradientUnits="userSpaceOnUse">
<stop stop-color="#4E53BE" stop-opacity="0.5"/>
<stop offset="0.885417" stop-color="#FB33FF" stop-opacity="0.5"/>
<stop offset="1" stop-color="white" stop-opacity="0.5"/>
</linearGradient>
<linearGradient id="paint25_linear_9_53" x1="82.5595" y1="130.381" x2="89.198" y2="58.8351" gradientUnits="userSpaceOnUse">
<stop stop-color="white"/>
<stop offset="1" stop-color="white" stop-opacity="0"/>
</linearGradient>
<linearGradient id="paint26_linear_9_53" x1="104.965" y1="68.1769" x2="42.6344" y2="72.335" gradientUnits="userSpaceOnUse">
<stop stop-color="#4E53BE" stop-opacity="0.5"/>
<stop offset="0.885417" stop-color="#FB33FF" stop-opacity="0.5"/>
<stop offset="1" stop-color="white" stop-opacity="0.5"/>
</linearGradient>
<linearGradient id="paint27_linear_9_53" x1="79.2585" y1="103.029" x2="83.7979" y2="56.3732" gradientUnits="userSpaceOnUse">
<stop stop-color="white"/>
<stop offset="1" stop-color="white" stop-opacity="0"/>
</linearGradient>
<radialGradient id="paint28_radial_9_53" cx="0" cy="0" r="1" gradientUnits="userSpaceOnUse" gradientTransform="translate(47.0448 190.928) rotate(-65.1363) scale(210.169)">
<stop offset="0.249306" stop-color="white"/>
<stop offset="0.48315" stop-color="#FF8FED" stop-opacity="0.5"/>
<stop offset="0.627037" stop-color="#220C7A" stop-opacity="0"/>
</radialGradient>
</defs>
</svg>
