<svg width="95" height="44" viewBox="0 0 95 44" fill="none" xmlns="http://www.w3.org/2000/svg">
<path d="M22 16.19L27 20.69V28.5H25V22.5H19V28.5H17V20.69L22 16.19ZM22 13.5L12 22.5H15V30.5H21V24.5H23V30.5H29V22.5H32L22 13.5Z" fill="white"/>
<path d="M54.438 16.151V28H52.891V22.628H46.856V28H45.309V16.151H46.856V21.353H52.891V16.151H54.438ZM61.1425 28.153C60.2698 28.153 59.4765 27.9547 58.7625 27.558C58.0598 27.1613 57.5045 26.6003 57.0965 25.875C56.6998 25.1383 56.5015 24.2883 56.5015 23.325C56.5015 22.373 56.7055 21.5343 57.1135 20.809C57.5328 20.0723 58.0995 19.5113 58.8135 19.126C59.5275 18.7293 60.3265 18.531 61.2105 18.531C62.0945 18.531 62.8935 18.7293 63.6075 19.126C64.3215 19.5113 64.8825 20.0667 65.2905 20.792C65.7098 21.5173 65.9195 22.3617 65.9195 23.325C65.9195 24.2883 65.7042 25.1383 65.2735 25.875C64.8542 26.6003 64.2818 27.1613 63.5565 27.558C62.8312 27.9547 62.0265 28.153 61.1425 28.153ZM61.1425 26.793C61.6978 26.793 62.2192 26.6627 62.7065 26.402C63.1938 26.1413 63.5848 25.7503 63.8795 25.229C64.1855 24.7077 64.3385 24.073 64.3385 23.325C64.3385 22.577 64.1912 21.9423 63.8965 21.421C63.6018 20.8997 63.2165 20.5143 62.7405 20.265C62.2645 20.0043 61.7488 19.874 61.1935 19.874C60.6268 19.874 60.1055 20.0043 59.6295 20.265C59.1648 20.5143 58.7908 20.8997 58.5075 21.421C58.2242 21.9423 58.0825 22.577 58.0825 23.325C58.0825 24.0843 58.2185 24.7247 58.4905 25.246C58.7738 25.7673 59.1478 26.1583 59.6125 26.419C60.0772 26.6683 60.5872 26.793 61.1425 26.793ZM79.1565 18.514C79.8819 18.514 80.5279 18.667 81.0945 18.973C81.6612 19.2677 82.1089 19.7153 82.4375 20.316C82.7662 20.9167 82.9305 21.6477 82.9305 22.509V28H81.4005V22.73C81.4005 21.8007 81.1682 21.0923 80.7035 20.605C80.2502 20.1063 79.6325 19.857 78.8505 19.857C78.0459 19.857 77.4055 20.1177 76.9295 20.639C76.4535 21.149 76.2155 21.8913 76.2155 22.866V28H74.6855V22.73C74.6855 21.8007 74.4532 21.0923 73.9885 20.605C73.5352 20.1063 72.9175 19.857 72.1355 19.857C71.3309 19.857 70.6905 20.1177 70.2145 20.639C69.7385 21.149 69.5005 21.8913 69.5005 22.866V28H67.9535V18.684H69.5005V20.027C69.8065 19.5397 70.2145 19.1657 70.7245 18.905C71.2459 18.6443 71.8182 18.514 72.4415 18.514C73.2235 18.514 73.9149 18.6897 74.5155 19.041C75.1162 19.3923 75.5639 19.908 75.8585 20.588C76.1192 19.9307 76.5499 19.4207 77.1505 19.058C77.7512 18.6953 78.4199 18.514 79.1565 18.514ZM93.9682 22.985C93.9682 23.2797 93.9512 23.5913 93.9172 23.92H86.4712C86.5278 24.838 86.8395 25.5577 87.4062 26.079C87.9842 26.589 88.6812 26.844 89.4972 26.844C90.1658 26.844 90.7212 26.691 91.1632 26.385C91.6165 26.0677 91.9338 25.6483 92.1152 25.127H93.7812C93.5318 26.0223 93.0332 26.7533 92.2852 27.32C91.5372 27.8753 90.6078 28.153 89.4972 28.153C88.6132 28.153 87.8198 27.9547 87.1172 27.558C86.4258 27.1613 85.8818 26.6003 85.4852 25.875C85.0885 25.1383 84.8902 24.2883 84.8902 23.325C84.8902 22.3617 85.0828 21.5173 85.4682 20.792C85.8535 20.0667 86.3918 19.5113 87.0832 19.126C87.7858 18.7293 88.5905 18.531 89.4972 18.531C90.3812 18.531 91.1632 18.7237 91.8432 19.109C92.5232 19.4943 93.0445 20.027 93.4072 20.707C93.7812 21.3757 93.9682 22.135 93.9682 22.985ZM92.3702 22.662C92.3702 22.0727 92.2398 21.5683 91.9792 21.149C91.7185 20.7183 91.3615 20.3953 90.9082 20.18C90.4662 19.9533 89.9732 19.84 89.4292 19.84C88.6472 19.84 87.9785 20.0893 87.4232 20.588C86.8792 21.0867 86.5675 21.778 86.4882 22.662H92.3702Z" fill="white"/>
</svg>
