<svg width="87" height="44" viewBox="0 0 87 44" fill="none" xmlns="http://www.w3.org/2000/svg">
<path d="M30 16.5H26V14.5C26 13.39 25.11 12.5 24 12.5H20C18.89 12.5 18 13.39 18 14.5V16.5H14C12.89 16.5 12.01 17.39 12.01 18.5L12 29.5C12 30.61 12.89 31.5 14 31.5H30C31.11 31.5 32 30.61 32 29.5V18.5C32 17.39 31.11 16.5 30 16.5ZM24 16.5H20V14.5H24V16.5Z" fill="white"/>
<path d="M60.201 16.151L56.767 28H55.033L52.279 18.463L49.423 28L47.706 28.017L44.391 16.151H46.04L48.624 26.198L51.48 16.151H53.214L55.934 26.164L58.535 16.151H60.201ZM65.957 28.153C65.0843 28.153 64.291 27.9547 63.577 27.558C62.8743 27.1613 62.319 26.6003 61.911 25.875C61.5143 25.1383 61.316 24.2883 61.316 23.325C61.316 22.373 61.52 21.5343 61.928 20.809C62.3473 20.0723 62.914 19.5113 63.628 19.126C64.342 18.7293 65.141 18.531 66.025 18.531C66.909 18.531 67.708 18.7293 68.422 19.126C69.136 19.5113 69.697 20.0667 70.105 20.792C70.5243 21.5173 70.734 22.3617 70.734 23.325C70.734 24.2883 70.5186 25.1383 70.088 25.875C69.6686 26.6003 69.0963 27.1613 68.371 27.558C67.6456 27.9547 66.841 28.153 65.957 28.153ZM65.957 26.793C66.5123 26.793 67.0336 26.6627 67.521 26.402C68.0083 26.1413 68.3993 25.7503 68.694 25.229C69 24.7077 69.153 24.073 69.153 23.325C69.153 22.577 69.0056 21.9423 68.711 21.421C68.4163 20.8997 68.031 20.5143 67.555 20.265C67.079 20.0043 66.5633 19.874 66.008 19.874C65.4413 19.874 64.92 20.0043 64.444 20.265C63.9793 20.5143 63.6053 20.8997 63.322 21.421C63.0386 21.9423 62.897 22.577 62.897 23.325C62.897 24.0843 63.033 24.7247 63.305 25.246C63.5883 25.7673 63.9623 26.1583 64.427 26.419C64.8916 26.6683 65.4016 26.793 65.957 26.793ZM74.315 20.197C74.587 19.6643 74.9723 19.2507 75.471 18.956C75.981 18.6613 76.5987 18.514 77.324 18.514V20.112H76.916C75.182 20.112 74.315 21.0527 74.315 22.934V28H72.768V18.684H74.315V20.197ZM84.3118 28L80.6568 23.886V28H79.1098V15.42H80.6568V22.815L84.2438 18.684H86.4028L82.0168 23.325L86.4198 28H84.3118Z" fill="white"/>
</svg>
